<?xml version="1.0" encoding="UTF-8"?>
<svg xmlns:cc="http://creativecommons.org/ns#" xmlns:dc="http://purl.org/dc/elements/1.1/"
     xmlns:rdf="http://www.w3.org/1999/02/22-rdf-syntax-ns#" width="45.443mm" height="45.443mm"
     version="1.1" viewBox="0 0 45.443 45.443"
     xmlns="http://www.w3.org/2000/svg">
    <metadata>
        <rdf:RDF>
            <cc:Work rdf:about="">
                <dc:format>image/svg+xml</dc:format>
                <dc:type rdf:resource="http://purl.org/dc/dcmitype/StillImage"/>
                <dc:title/>
            </cc:Work>
        </rdf:RDF>
    </metadata>
    <g transform="translate(-45.692 -53.818)">
        <circle cx="68.414" cy="76.54" r="20.785" fill="#fff" stroke="#ffc700" stroke-width="3.8726"/>
        <g transform="translate(-21.923 -9.2604)">
            <path d="m94.551 90.075c0 0.73974-0.70626 1.3395-1.5779 1.3395h-7.5186c-0.87228 0-1.5785-0.59972-1.5785-1.3395l-1.2623-6.2287c0-0.73974 0.70623-1.3395 1.5778-1.3395h10.044c0.87161 0 1.5786 0.59972 1.5786 1.3395l-1.263 6.2287"
                  fill="#ea3d1f"/>
            <g fill="#d52b29">
                <path d="m89.979 89.562c0 0.48715-0.39465 0.88194-0.88195 0.88194-0.48701 0-0.88194-0.39479-0.88194-0.88194v-6.1736c0-0.48716 0.39493-0.88195 0.88194-0.88195 0.48729 0 0.88195 0.39479 0.88195 0.88195v6.1736"/>
                <path d="m93.044 89.658c-0.0714 0.4815-0.51978 0.81417-1.0019 0.74263-0.48161-0.0712-0.81439-0.52007-0.74274-1.002l0.90604-6.1065c0.0714-0.48161 0.51996-0.81456 1.0019-0.74302 0.48161 0.0712 0.81442 0.52007 0.74274 1.002l-0.90604 6.1069"/>
                <path d="m85.15 89.658c0.0714 0.4815 0.51996 0.81417 1.0019 0.74263 0.48161-0.0712 0.81442-0.52007 0.74274-1.002l-0.90604-6.1065c-0.0714-0.48161-0.51978-0.81456-1.0019-0.74302-0.48161 0.0712-0.81439 0.52007-0.74274 1.002l0.90604 6.1069"/>
            </g>
            <path d="m97.119 80.919c0 1.4288-1.1571 2.5859-2.5858 2.5859-0.22229 0-0.43769-0.0319-0.64216-0.0848-1.0303 1.154-2.7272 1.9086-4.6462 1.9086-1.9295 0-3.63-0.76207-4.6601-1.919-0.21869 0.0602-0.45159 0.0952-0.69152 0.0952-1.4286 0-2.5859-1.1572-2.5859-2.5859 0-0.21526 0.02484-0.41973 0.07761-0.61736 0.27517-1.1325 1.2912-1.9685 2.5083-1.9685 0.19748 0 0.38463 0.0247 0.5716 0.0635 1.0125-1.2383 2.7726-2.0638 4.78-2.0638 2.0004 0 3.7535 0.81883 4.7696 2.0536 0.16605-0.0357 0.34244-0.0533 0.51883-0.0533 1.2168 0 2.233 0.83605 2.5079 1.9685 0.05306 0.19763 0.07789 0.4021 0.07789 0.61736"
                  fill="#f7a93e"/>
            <g fill="#e65a5d">
                <path d="m87.61 82.54c0 0.62371-0.50574 1.1293-1.1293 1.1293-0.62371 0-1.1295-0.5056-1.1295-1.1293 0-0.62368 0.50574-1.1292 1.1295-1.1292 0.62357 0 1.1293 0.50549 1.1293 1.1292"/>
                <path d="m89.869 79.444c0 0.62343-0.50574 1.1293-1.1293 1.1293-0.62339 0-1.1291-0.50589-1.1291-1.1293 0-0.62367 0.50574-1.1296 1.1291-1.1296 0.62357 0 1.1293 0.50589 1.1293 1.1296"/>
                <path d="m94.884 81.96c0 0.62367-0.50574 1.1296-1.1293 1.1296-0.62371 0-1.1295-0.50589-1.1295-1.1296 0-0.62343 0.50574-1.1293 1.1295-1.1293 0.62357 0 1.1293 0.50588 1.1293 1.1293"/>
                <path d="m93.754 78.315c0 0.62368-0.50574 1.1296-1.1295 1.1296-0.62357 0-1.1293-0.50588-1.1293-1.1296 0-0.62328 0.50574-1.1293 1.1293-1.1293 0.62371 0 1.1295 0.50603 1.1295 1.1293"/>
                <path d="m85.74 78.315c0 0.62368-0.50574 1.1296-1.1295 1.1296-0.62357 0-1.1293-0.50588-1.1293-1.1296 0-0.62328 0.50574-1.1293 1.1293-1.1293 0.62371 0 1.1295 0.50603 1.1295 1.1293"/>
            </g>
            <path d="m86.305 91.149c-1.1898-0.32632-2.8453-0.52917-4.6785-0.52917-1.8328 0-3.4881 0.20285-4.678 0.52917h-1.8776v1.2347c0 0.97441 2.9352 1.7639 6.5556 1.7639 3.6209 0 6.556-0.78948 6.556-1.7639v-1.2347h-1.8776"
                  fill="#f68b14"/>
            <path d="m88.183 91.149c0 0.9744-2.9351 1.7639-6.556 1.7639-3.6204 0-6.5556-0.78949-6.5556-1.7639s2.9352-1.7639 6.5556-1.7639c3.6209 0 6.556 0.78948 6.556 1.7639"
                  fill="#f7a93e"/>
            <g fill="#52241c">
                <path d="m79.055 91.304c0 0.20711-0.16771 0.37468-0.37483 0.37468h-0.92604c-0.20698 0-0.37483-0.16757-0.37483-0.37468 0-0.20698 0.16785-0.37497 0.37483-0.37497h0.92604c0.20712 0 0.37483 0.16799 0.37483 0.37497"/>
                <path d="m82.492 90.325c0 0.2424-0.19636 0.43808-0.43836 0.43808h-1.3774c-0.24169 0-0.43822-0.19568-0.43822-0.43808 0-0.24172 0.19653-0.43822 0.43822-0.43822h1.3774c0.24201 0 0.43836 0.1965 0.43836 0.43822"/>
                <path d="m84.879 91.679c0 0.19512-0.1578 0.35278-0.35278 0.35278h-0.70556c-0.19502 0-0.35278-0.15766-0.35278-0.35278s0.15776-0.35277 0.35278-0.35277h0.70556c0.19498 0 0.35278 0.15765 0.35278 0.35277"/>
                <path d="m81.813 92.031c0 0.19512-0.15762 0.35278-0.35278 0.35278h-0.48507c-0.19484 0-0.35278-0.15766-0.35278-0.35278s0.15794-0.35278 0.35278-0.35278h0.48507c0.19516 0 0.35278 0.15766 0.35278 0.35278"/>
                <path d="m85.978 90.576c0 0.19512-0.15776 0.35278-0.35278 0.35278h-0.66146c-0.19484 0-0.35278-0.15766-0.35278-0.35278s0.15794-0.35277 0.35278-0.35277h0.66146c0.19501 0 0.35278 0.15765 0.35278 0.35277"/>
            </g>
            <path d="m93.193 93.732c-0.65638 0.32798-5.7203 1.5364-6.1626 1.5364-0.3762 0-1.3787-0.27562-0.58677-1.9481 0.13589-0.28858 0.3284-0.62121 0.58677-1.0018 1.7462-2.5739 5.1477-3.3398 5.1477-3.3398s0.63003 1.663 0.96298 3.0244c0.20973 0.86226 0.30593 1.6024 0.05196 1.729"
                  fill="#e8621a"/>
            <path d="m93.141 92.003c-0.83619 0.3634-5.6775 1.5145-6.1106 1.5145-0.14908 0-0.39412-0.0441-0.58677-0.1972 0.13589-0.28858 0.3284-0.62121 0.58677-1.0018 1.7462-2.5739 5.1477-3.3398 5.1477-3.3398s0.63003 1.663 0.96298 3.0244"
                  fill="#ef7616"/>
            <path d="m98.555 93.732c0.6562 0.32798 5.7203 1.5364 6.1627 1.5364 0.37607 0 1.3787-0.27562 0.58668-1.9481-0.13583-0.28858-0.32844-0.62121-0.58668-1.0018-1.7466-2.5739-5.1479-3.3398-5.1479-3.3398s-0.63003 1.663-0.96284 3.0244c-0.21015 0.86226-0.30593 1.6024-0.05193 1.729"
                  fill="#e8621a"/>
            <path d="m98.607 92.003c0.83605 0.3634 5.6775 1.5145 6.1107 1.5145 0.14888 0 0.39406-0.0441 0.58668-0.1972-0.13583-0.28858-0.32844-0.62121-0.58668-1.0018-1.7466-2.5739-5.1479-3.3398-5.1479-3.3398s-0.63003 1.663-0.96284 3.0244"
                  fill="#ef7616"/>
            <path d="m100.39 90.454v1.5885c0 1.208-0.9809 2.189-2.1887 2.189h-4.5393c-1.213 0-2.1886-0.98101-2.1886-2.189v-1.5885c0-0.0268 0-0.0526 0.0044-0.0787 0.03926-1.173 0.99811-2.1101 2.1842-2.1101h4.5393c1.1817 0 2.1442 0.93708 2.1835 2.1101 5e-3 0.026 5e-3 0.0518 5e-3 0.0787"
                  fill="#ef7616"/>
            <path d="m100.38 90.375c-9e-3 0.23178-0.0521 0.45008-0.12651 0.65649-0.29792 0.84462-1.1075 1.4489-2.057 1.4489h-4.5393c-0.95388 0-1.7598-0.60424-2.0616-1.4489-0.0744-0.20641-0.11366-0.42471-0.12263-0.65649 0.03926-1.173 0.99811-2.1101 2.1842-2.1101h4.5393c1.1817 0 2.1442 0.93708 2.1835 2.1101"
                  fill="#f68b14"/>
        </g>
    </g>
</svg>
