<?xml version="1.0" encoding="UTF-8"?>
<svg width="22.414mm" height="21.936mm" version="1.1" viewBox="0 0 22.414 21.936" xmlns="http://www.w3.org/2000/svg" xmlns:cc="http://creativecommons.org/ns#" xmlns:dc="http://purl.org/dc/elements/1.1/" xmlns:rdf="http://www.w3.org/1999/02/22-rdf-syntax-ns#">
 <defs>
  <clipPath id="clipPath1241">
   <path d="m26662 8606.3-770.1 770.1-1440.4-1440.4-1440.4 1440.4-770.1-770.1 1440.4-1440.4-1440.5-1440.4 770.2-770.1 1440.4 1440.4 1440.4-1440.4 770.1 770.1-1440.4 1440.4z"/>
  </clipPath>
 </defs>
 <metadata>
  <rdf:RDF>
   <cc:Work rdf:about="">
    <dc:format>image/svg+xml</dc:format>
    <dc:type rdf:resource="http://purl.org/dc/dcmitype/StillImage"/>
    <dc:title/>
   </cc:Work>
  </rdf:RDF>
 </metadata>
 <g transform="translate(-87.445 -89.574)">
  <g transform="matrix(.0056586 0 0 -.0056586 17.623 124.29)">
   <path d="m14381 2258.2h-123.2c-1059.8 0-1918.9 859.11-1918.9 1918.9v38.77c0 1059.7 859.1 1918.9 1918.9 1918.9h123.2c1059.8 0 1918.9-859.18 1918.9-1918.9v-38.77c0-1059.8-859.1-1918.9-1918.9-1918.9" fill="#ef2e32"/>
  </g>
  <g transform="matrix(.0033138 0 0 -.0033138 17.623 124.29)" fill="#fff">
   <g clip-path="url(#clipPath1241)" fill="#fff">
    <g transform="scale(1.6357)" fill="#fff">
     <path d="m16300 5261.5-470.8 470.8-880.6-880.59-880.6 880.59-470.8-470.8 880.6-880.59-880.6-880.59 470.8-470.81 880.6 880.6 880.6-880.6 470.8 470.81-880.6 880.59 880.6 880.59" fill="#fff"/>
    </g>
   </g>
  </g>
 </g>
</svg>
