<?xml version="1.0" encoding="UTF-8"?>
<svg width="173.11mm" height="173.11mm" version="1.1" viewBox="0 0 173.11 173.11" xmlns="http://www.w3.org/2000/svg" xmlns:cc="http://creativecommons.org/ns#" xmlns:dc="http://purl.org/dc/elements/1.1/" xmlns:rdf="http://www.w3.org/1999/02/22-rdf-syntax-ns#">
 <metadata>
  <rdf:RDF>
   <cc:Work rdf:about="">
    <dc:format>image/svg+xml</dc:format>
    <dc:type rdf:resource="http://purl.org/dc/dcmitype/StillImage"/>
    <dc:title/>
   </cc:Work>
  </rdf:RDF>
 </metadata>
 <g transform="translate(-18.319 -40.951)">
  <g transform="matrix(.35278 0 0 -.35278 191.43 127.51)" fill="#ffc700">
   <path d="m0 0c0-135.51-109.85-245.36-245.36-245.36-135.51 0-245.36 109.85-245.36 245.36 0 135.51 109.85 245.36 245.36 245.36 135.5 0 245.36-109.85 245.36-245.36" fill="#ffc700"/>
  </g>
  <g transform="matrix(.35278 0 0 -.35278 104.92 188.1)" fill="#ffa900">
   <path d="m0 0 54.111-67.132s155 28.336 188 199l-118.08 152.33z" fill="#ffa900"/>
  </g>
  <g transform="matrix(.35278 0 0 -.35278 133.76 83.026)">
   <path d="m0 0h-161.13s-12.304-21.631-29.173-23.586c-59.839-207.11 109.64-258.27 109.74-258.3h0.011c0.107 0.03 169.59 51.188 109.75 258.3-16.917 1.966-29.197 23.586-29.197 23.586" fill="#1c89a3"/>
  </g>
  <g transform="matrix(.35278 0 0 -.35278 130.75 87.631)">
   <path d="m0 0h-146.54s-11.19-19.544-26.533-21.31c-54.421-187.13 99.719-233.35 99.804-233.38h0.011c0.096 0.03 154.24 46.249 99.816 233.38-15.388 1.776-26.556 21.31-26.556 21.31" fill="#2fc0f2"/>
  </g>
  <g transform="matrix(.35278 0 0 -.35278 104.91 182.47)">
   <path d="m0 0c-22.552 7.671-164.21 64.167-110.13 255.08 14.171 4.222 24.425 16.653 29.094 23.331h162.08c4.67-6.678 14.914-19.119 29.095-23.331 54.077-190.92-87.604-247.41-110.14-255.08m125.54 263.28-1.463 4.951-5.767 0.661c-10.953 1.237-21.691 15.605-24.574 20.555l-2.432 4.118h-182.64l-2.4-4.128c-2.884-4.94-13.535-19.298-24.58-20.545l-5.783-0.661-1.458-4.951c-65.907-222.78 121.19-278.1 123.12-278.6l2.485-0.643 2.496 0.661c1.894 0.52 188.42 57.49 123 278.58" fill="#fff"/>
  </g>
  <g transform="matrix(.35278 0 0 -.35278 96.231 118.53)">
   <path d="m0 0c0 23 12.248 28.142 24.388 28.142s24.39-5.142 24.39-28.142zm33.768-64h-18.76l3.603 26.212c-3.688 2.069-6.181 6.502-6.181 11.03 0 6.67 5.404 12.325 12.076 12.325 6.67 0 12.077-5.286 12.077-11.956 0-4.616-2.592-9.549-6.402-11.582zm31.893 64h-5.627c0 25-14.991 39.398-35.646 39.398s-35.644-14.398-35.644-39.398h-5.629c-8.289 0-11.038-3.084-11.038-11.374v-52.529c0-8.289 2.749-16.097 11.038-16.097h82.546c8.289 0 13.416 7.808 13.416 16.097v52.529c0 8.29-5.127 11.374-13.416 11.374" fill="#fff"/>
  </g>
 </g>
</svg>
