<?xml version="1.0" encoding="UTF-8"?>
<svg xmlns:cc="http://creativecommons.org/ns#" xmlns:dc="http://purl.org/dc/elements/1.1/" xmlns:rdf="http://www.w3.org/1999/02/22-rdf-syntax-ns#" width="48.164mm" height="48.164mm"
     version="1.1" viewBox="0 0 48.164 48.164"
     xmlns="http://www.w3.org/2000/svg">
    <metadata>
        <rdf:RDF>
            <cc:Work rdf:about="">
                <dc:format>image/svg+xml</dc:format>
                <dc:type rdf:resource="http://purl.org/dc/dcmitype/StillImage"/>
                <dc:title/>
            </cc:Work>
        </rdf:RDF>
    </metadata>
    <g transform="translate(-87.303 -48.148)">
        <g transform="translate(-17.64 -2.8063)">
            <circle cx="129.02" cy="75.036" r="21.582" fill="#fff" stroke="#ffc700" stroke-width="5"/>
            <g transform="matrix(1.0131 0 0 1.0131 -8.6421 -9.5935)">
                <path d="m139.5 89.7-3.2212 0.68897-6.084-0.68897c-1.0418 0-1.8898-0.84808-1.8898-1.8902v-7.1413c-0.83255-0.19755-1.4542-0.94756-1.4542-1.839v-0.65475c0-0.45579-2.4123-0.80116-2.1421-1.1285 0 0 3.4456-0.76165 4.0322-0.76129h12.213c1.0425 0 1.8898 0.84737 1.8898 1.8898v0.65475c0 0.89147-0.62124 1.6415-1.4534 1.839v7.1413c0 1.0421-0.84843 1.8902-1.8905 1.8902"
                      fill="#e8621a"/>
                <path d="m137.44 77.717h-12.213c-0.80292 0-1.4538 0.65053-1.4538 1.4538v0.65476c0 0.80257 0.65087 1.4538 1.4538 1.4538v7.5265c0 0.80292 0.65088 1.4542 1.4538 1.4542h9.3052c0.80328 0 1.4542-0.65123 1.4542-1.4542v-7.5265c0.80292 0 1.4542-0.65122 1.4542-1.4538v-0.65476c0-0.80327-0.65123-1.4538-1.4542-1.4538"
                      fill="#f9cb88"/>
                <path d="m125.23 77.846c-0.56091 0-1.0174 0.45579-1.0174 1.0174v0.6544c0 0.56127 0.4565 1.0181 1.0174 1.0181 0.24095 0 0.43639 0.19473 0.43639 0.43603v7.5262c0 0.56162 0.45685 1.0181 1.0174 1.0181h9.3052c0.56127 0 1.0178-0.45649 1.0178-1.0181v-7.5262c0-0.2413 0.19543-0.43603 0.43638-0.43603 0.56057 0 1.0174-0.45685 1.0174-1.0181v-0.6544c0-0.56162-0.45684-1.0174-1.0174-1.0174zm10.759 12.543h-9.3052c-1.0421 0-1.8902-0.84808-1.8902-1.8905v-7.1409c-0.83185-0.19756-1.4534-0.94756-1.4534-1.8394v-0.6544c0-1.0421 0.84773-1.8898 1.8898-1.8898h12.213c1.0421 0 1.8902 0.84773 1.8902 1.8898v0.6544c0 0.89183-0.6216 1.6418-1.4542 1.8394v7.1409c0 1.0424-0.84772 1.8905-1.8902 1.8905"
                      fill="#e8621a"/>
                <path d="m151.64 89.101c-0.18379 0.96273-0.82938 1.6792-1.6051 1.6792h-20.895c-0.73695 0-1.3614-0.65264-1.5801-1.5487 0.19403-1.0266 1.718-1.9368 4.0428-2.5753 0.35631-0.0988 0.7299-0.18697 1.1218-0.27164 0.49741-0.10583 1.023-0.20461 1.5699-0.28575 0.36336-0.0564 0.73378-0.10618 1.1183-0.14816 0.50765-0.06 1.0301-0.10619 1.5699-0.14111 0.36688-0.0282 0.74083-0.0494 1.1218-0.0635 0.49389-0.018 0.99836-0.0282 1.5099-0.0282h0.06c0.37712 0 0.75142 7e-3 1.1215 0.0176 0.5327 0.0176 1.0583 0.0423 1.5667 0.0808 0.381 0.025 0.75812 0.0603 1.1218 0.0956 0.54328 0.0565 1.065 0.127 1.5699 0.20461 0.38453 0.06 0.75812 0.127 1.1183 0.20109 3.0194 0.60325 5.1153 1.6118 5.468 2.7834"
                      fill="#f7a93e"/>
                <path d="m151.63 89.147c-0.19368 0.94192-0.83221 1.6334-1.5942 1.6334h-20.895c-0.73695 0-1.3614-0.65264-1.5801-1.5487 7e-3 -0.0356 0.0141-0.0705 0.0243-0.1023 0.20461 0.0494 0.42016 0.0741 0.63888 0.0741h22.846c0.1905 0 0.381-0.0215 0.56057-0.0565"
                      fill="#f68b14"/>
                <g fill="#ef7616">
                    <path d="m132.72 86.385v1.7745c0 0.31044-0.25047 0.56091-0.56092 0.56091-0.31044 0-0.56092-0.25047-0.56092-0.56091v-1.5028c0.35631-0.0988 0.7299-0.18697 1.1218-0.27164"/>
                    <path d="m135.41 85.951v2.2084c0 0.31044-0.25047 0.56091-0.55738 0.56091-0.31045 0-0.56092-0.25047-0.56092-0.56091v-2.0602c0.36336-0.0564 0.73378-0.10618 1.1183-0.14816"/>
                    <path d="m138.1 85.746v2.413c0 0.31044-0.25047 0.56091-0.56092 0.56091-0.31044 0-0.56091-0.25047-0.56091-0.56091v-2.3495c0.36688-0.0282 0.74083-0.0494 1.1218-0.0635"/>
                    <path d="m140.79 85.736v2.4236c0 0.31044-0.25365 0.56091-0.56056 0.56091-0.31045 0-0.56092-0.25047-0.56092-0.56091v-2.4412c0.37712 0 0.75142 7e-3 1.1215 0.0176"/>
                    <path d="m143.48 85.912v2.2472c0 0.31044-0.25047 0.56091-0.56092 0.56091-0.31044 0-0.56091-0.25047-0.56091-0.56091v-2.3428c0.381 0.025 0.75812 0.0603 1.1218 0.0956"/>
                    <path d="m146.17 86.318v1.8415c0 0.31044-0.25048 0.56091-0.55739 0.56091-0.31045 0-0.56092-0.25047-0.56092-0.56091v-2.0426c0.38453 0.06 0.75812 0.127 1.1183 0.20109"/>
                    <path d="m126.46 87.464c0 1.5452-1.2524 2.7975-2.794 2.7975h-0.74471c-1.5452 0-2.794-1.2524-2.794-2.7975 0-0.24341 0.0317-0.47977 0.0917-0.70555 0.12735-0.48719 0.381-0.92075 0.72707-1.27 0.2854-0.28575 0.635-0.51188 1.0227-0.65264 0.26846-0.0956 0.55386-0.15522 0.85407-0.16228 0.0317-4e-3 0.0667-4e-3 0.0984-4e-3h0.74471c0.2854 0 0.56092 0.0423 0.81845 0.12383 0.92039 0.28222 1.6436 1.0301 1.8838 1.9685 0.06 0.22577 0.0917 0.45861 0.0917 0.70202"/>
                </g>
                <path d="m126.37 86.762c-0.31433 1.203-1.4044 2.0884-2.7023 2.0884h-0.74471c-1.3014 0-2.3915-0.88935-2.7023-2.092 0.12735-0.48719 0.381-0.92075 0.72707-1.27 0.2854-0.28575 0.635-0.51188 1.0227-0.65264 0.26846-0.0956 0.55386-0.15522 0.85407-0.16228 0.0317-4e-3 0.0667-4e-3 0.0984-4e-3h0.74471c0.2854 0 0.56092 0.0423 0.81845 0.12383 0.92039 0.28222 1.6436 1.0301 1.8838 1.9685"
                      fill="#f7a93e"/>
                <path d="m122.89 84.907v2.3813c0 0.254-0.20779 0.46213-0.46567 0.46213-0.254 0-0.46179-0.20813-0.46179-0.46213v-2.3813c0-0.0247 3e-3 -0.0462 7e-3 -0.0705 0.26846-0.0956 0.55386-0.15522 0.85407-0.16228 0.0459 0.0667 0.0667 0.14817 0.0667 0.23283"
                      fill="#f68b14"/>
                <path d="m124.51 84.928v2.3812c0 0.25365-0.20496 0.46179-0.46214 0.46179-0.25435 0-0.46249-0.20814-0.46249-0.46179v-2.3812c0-0.0952 0.0286-0.18344 0.0741-0.25788h0.0109c0.2854 0 0.56092 0.0423 0.81845 0.12383 0.0141 0.0423 0.0212 0.0882 0.0212 0.13405"
                      fill="#f68b14"/>
            </g>
        </g>
    </g>
</svg>
