<?xml version="1.0" encoding="UTF-8"?>
<svg xmlns:cc="http://creativecommons.org/ns#" xmlns:dc="http://purl.org/dc/elements/1.1/"
     xmlns:rdf="http://www.w3.org/1999/02/22-rdf-syntax-ns#" width="22.414mm" height="21.936mm"
     version="1.1" viewBox="0 0 22.414 21.936"
     xmlns="http://www.w3.org/2000/svg">
    <defs>
        <clipPath id="clipPath1263">
            <path d="m34556 9377.8-2631.8-2631.8-1440.5 1440.4-770.1-770.1 1440.5-1440.5-0.3-0.2 770.1-770.1 3402.2 3402.2z"/>
        </clipPath>
    </defs>
    <metadata>
        <rdf:RDF>
            <cc:Work rdf:about="">
                <dc:format>image/svg+xml</dc:format>
                <dc:type rdf:resource="http://purl.org/dc/dcmitype/StillImage"/>
                <dc:title/>
            </cc:Work>
        </rdf:RDF>
    </metadata>
    <g transform="translate(-105.12 -73.756)">
        <g transform="matrix(.0072815 0 0 -.0072815 8.8482 108.47)">
            <path d="m14809 1754.9h-95.7c-823.6 0-1491.3 667.63-1491.3 1491.2v30.12c0 823.56 667.7 1491.2 1491.3 1491.2h95.7c823.6 0 1491.2-667.68 1491.2-1491.2v-30.12c0-823.61-667.6-1491.2-1491.2-1491.2"
                  fill="#4fbe48"/>
        </g>
        <g transform="matrix(.0033138 0 0 -.0033138 8.8482 108.47)" fill="#fff">
            <g clip-path="url(#clipPath1263)" fill="#fff">
                <g transform="scale(2.1672)" fill="#fff">
                    <path d="m15945 4327.1-1214.4-1214.4-664.7 664.62-355.3-355.34 664.7-664.66-0.2-0.1 355.4-355.33 1569.8 1569.8-355.3 355.34"
                          fill="#fff"/>
                </g>
            </g>
        </g>
    </g>
</svg>
